{
  "accessors": [
    {
      "bufferView": 1,
      "componentType": 5126,
      "count": 65532,
      "max": [
        0.2687920033931732,
        0.9002671241760254,
        0.9725496768951416
      ],
      "min": [
        -1.2997140884399414,
        -0.5041289925575256,
        -0.31641191244125366
      ],
      "type": "VEC3"
    },
    {
      "bufferView": 1,
      "byteOffset": 786384,
      "componentType": 5126,
      "count": 65532,
      "max": [
        0.9999948740005493,
        0.9893782138824463,
        0.9999955892562866
      ],
      "min": [
        -0.9999977946281433,
        -0.9998897910118103,
        -0.9999948740005493
      ],
      "type": "VEC3"
    },
    {
      "bufferView": 2,
      "componentType": 5126,
      "count": 65532,
      "max": [
        1.0,
        1.0,
        1.0,
        0.0
      ],
      "min": [
        1.0,
        1.0,
        1.0,
        0.0
      ],
      "type": "VEC4"
    },
    {
      "bufferView": 0,
      "componentType": 5125,
      "count": 338028,
      "type": "SCALAR"
    },
    {
      "bufferView": 1,
      "byteOffset": 1572768,
      "componentType": 5126,
      "count": 65532,
      "max": [
        0.26786941289901733,
        2.227149486541748,
        1.6407790184020996
      ],
      "min": [
        -0.8178214430809021,
        -0.6134427189826965,
        -0.31641191244125366
      ],
      "type": "VEC3"
    },
    {
      "bufferView": 1,
      "byteOffset": 2359152,
      "componentType": 5126,
      "count": 65532,
      "max": [
        0.9999885559082031,
        0.9999948143959045,
        0.9832330942153931
      ],
      "min": [
        -0.9999984502792358,
        -0.9999921917915344,
        -0.9999985694885254
      ],
      "type": "VEC3"
    },
    {
      "bufferView": 2,
      "byteOffset": 1048512,
      "componentType": 5126,
      "count": 65532,
      "max": [
        1.0,
        1.0,
        1.0,
        0.0
      ],
      "min": [
        1.0,
        1.0,
        1.0,
        0.0
      ],
      "type": "VEC4"
    },
    {
      "bufferView": 0,
      "byteOffset": 1352112,
      "componentType": 5125,
      "count": 341112,
      "type": "SCALAR"
    },
    {
      "bufferView": 1,
      "byteOffset": 3145536,
      "componentType": 5126,
      "count": 65532,
      "max": [
        -0.2086198329925537,
        2.9469237327575684,
        1.7044761180877686
      ],
      "min": [
        -2.238050937652588,
        0.6772010326385498,
        -0.9796536564826965
      ],
      "type": "VEC3"
    },
    {
      "bufferView": 1,
      "byteOffset": 3931920,
      "componentType": 5126,
      "count": 65532,
      "max": [
        0.9999877214431763,
        0.9919431209564209,
        0.9999698996543884
      ],
      "min": [
        -0.9889437556266785,
        -0.9999980926513672,
        -0.9999875426292419
      ],
      "type": "VEC3"
    },
    {
      "bufferView": 2,
      "byteOffset": 2097024,
      "componentType": 5126,
      "count": 65532,
      "max": [
        1.0,
        1.0,
        1.0,
        0.0
      ],
      "min": [
        0.0,
        0.0,
        0.0,
        0.0
      ],
      "type": "VEC4"
    },
    {
      "bufferView": 0,
      "byteOffset": 2716560,
      "componentType": 5125,
      "count": 341064,
      "type": "SCALAR"
    },
    {
      "bufferView": 1,
      "byteOffset": 4718304,
      "componentType": 5126,
      "count": 65532,
      "max": [
        -0.316203236579895,
        2.9617550373077393,
        1.6958543062210083
      ],
      "min": [
        -2.6092047691345215,
        1.3345599174499512,
        -0.9796447157859802
      ],
      "type": "VEC3"
    },
    {
      "bufferView": 1,
      "byteOffset": 5504688,
      "componentType": 5126,
      "count": 65532,
      "max": [
        0.916378915309906,
        0.9999947547912598,
        0.9810696840286255
      ],
      "min": [
        -0.999967634677887,
        -0.6499629020690918,
        -0.9999831914901733
      ],
      "type": "VEC3"
    },
    {
      "bufferView": 2,
      "byteOffset": 3145536,
      "componentType": 5126,
      "count": 65532,
      "max": [
        1.0,
        1.0,
        1.0,
        0.0
      ],
      "min": [
        0.0,
        0.0,
        0.0,
        0.0
      ],
      "type": "VEC4"
    },
    {
      "bufferView": 0,
      "byteOffset": 4080816,
      "componentType": 5125,
      "count": 359631,
      "type": "SCALAR"
    },
    {
      "bufferView": 1,
      "byteOffset": 6291072,
      "componentType": 5126,
      "count": 65533,
      "max": [
        -0.21059167385101318,
        2.6398675441741943,
        1.704336404800415
      ],
      "min": [
        -2.6092047691345215,
        0.6772134304046631,
        -0.9791128039360046
      ],
      "type": "VEC3"
    },
    {
      "bufferView": 1,
      "byteOffset": 7077468,
      "componentType": 5126,
      "count": 65533,
      "max": [
        0.9983267784118652,
        0.72444748878479,
        0.9995386004447937
      ],
      "min": [
        -0.9999991059303284,
        -0.9999955296516418,
        -0.9994463920593262
      ],
      "type": "VEC3"
    },
    {
      "bufferView": 2,
      "byteOffset": 4194048,
      "componentType": 5126,
      "count": 65533,
      "max": [
        1.0,
        1.0,
        1.0,
        0.0
      ],
      "min": [
        0.0,
        0.0,
        0.0,
        0.0
      ],
      "type": "VEC4"
    },
    {
      "bufferView": 0,
      "byteOffset": 5519340,
      "componentType": 5125,
      "count": 342366,
      "type": "SCALAR"
    },
    {
      "bufferView": 1,
      "byteOffset": 7863864,
      "componentType": 5126,
      "count": 65532,
      "max": [
        0.26054325699806213,
        2.7258288860321045,
        1.7037663459777832
      ],
      "min": [
        -2.6056883335113525,
        -0.612209677696228,
        -0.9784405827522278
      ],
      "type": "VEC3"
    },
    {
      "bufferView": 1,
      "byteOffset": 8650248,
      "componentType": 5126,
      "count": 65532,
      "max": [
        0.9997516870498657,
        0.905555248260498,
        0.9999552369117737
      ],
      "min": [
        -0.9999949336051941,
        -0.9999503493309021,
        -0.9987415075302124
      ],
      "type": "VEC3"
    },
    {
      "bufferView": 2,
      "byteOffset": 5242576,
      "componentType": 5126,
      "count": 65532,
      "max": [
        1.0,
        1.0,
        1.0,
        0.0
      ],
      "min": [
        0.0,
        0.0,
        0.0,
        0.0
      ],
      "type": "VEC4"
    },
    {
      "bufferView": 0,
      "byteOffset": 6888804,
      "componentType": 5125,
      "count": 298587,
      "type": "SCALAR"
    },
    {
      "bufferView": 1,
      "byteOffset": 9436632,
      "componentType": 5126,
      "count": 65532,
      "max": [
        0.16159279644489288,
        1.0502939224243164,
        0.9709353446960449
      ],
      "min": [
        -1.6548925638198853,
        -0.6121793389320374,
        -0.3356421887874603
      ],
      "type": "VEC3"
    },
    {
      "bufferView": 1,
      "byteOffset": 10223016,
      "componentType": 5126,
      "count": 65532,
      "max": [
        0.9989798069000244,
        0.9999945163726807,
        0.997104287147522
      ],
      "min": [
        -0.9999974370002747,
        -0.9999995827674866,
        -0.99996417760849
      ],
      "type": "VEC3"
    },
    {
      "bufferView": 2,
      "byteOffset": 6291088,
      "componentType": 5126,
      "count": 65532,
      "max": [
        1.0,
        1.0,
        1.0,
        0.0
      ],
      "min": [
        1.0,
        1.0,
        1.0,
        0.0
      ],
      "type": "VEC4"
    },
    {
      "bufferView": 0,
      "byteOffset": 8083152,
      "componentType": 5125,
      "count": 325785,
      "type": "SCALAR"
    },
    {
      "bufferView": 1,
      "byteOffset": 11009400,
      "componentType": 5126,
      "count": 65532,
      "max": [
        -0.2931382954120636,
        1.0479706525802612,
        0.992696225643158
      ],
      "min": [
        -1.6648778915405273,
        -0.597543478012085,
        -0.3356366753578186
      ],
      "type": "VEC3"
    },
    {
      "bufferView": 1,
      "byteOffset": 11795784,
      "componentType": 5126,
      "count": 65532,
      "max": [
        0.9976784586906433,
        0.9999948143959045,
        0.9999927878379822
      ],
      "min": [
        -0.9999993443489075,
        -0.9999999403953552,
        -0.9999531507492065
      ],
      "type": "VEC3"
    },
    {
      "bufferView": 2,
      "byteOffset": 7339600,
      "componentType": 5126,
      "count": 65532,
      "max": [
        1.0,
        1.0,
        1.0,
        0.0
      ],
      "min": [
        1.0,
        1.0,
        1.0,
        0.0
      ],
      "type": "VEC4"
    },
    {
      "bufferView": 0,
      "byteOffset": 9386292,
      "componentType": 5125,
      "count": 331110,
      "type": "SCALAR"
    },
    {
      "bufferView": 1,
      "byteOffset": 12582168,
      "componentType": 5126,
      "count": 65532,
      "max": [
        -0.8116759657859802,
        1.0531458854675293,
        0.9907578825950623
      ],
      "min": [
        -1.6609504222869873,
        -0.597943902015686,
        -0.3314521014690399
      ],
      "type": "VEC3"
    },
    {
      "bufferView": 1,
      "byteOffset": 13368552,
      "componentType": 5126,
      "count": 65532,
      "max": [
        0.9998111128807068,
        0.9999616146087646,
        0.9972521662712097
      ],
      "min": [
        -0.9996131658554077,
        -0.9999997615814209,
        -0.9948077201843262
      ],
      "type": "VEC3"
    },
    {
      "bufferView": 2,
      "byteOffset": 8388112,
      "componentType": 5126,
      "count": 65532,
      "max": [
        1.0,
        1.0,
        1.0,
        0.0
      ],
      "min": [
        1.0,
        1.0,
        1.0,
        0.0
      ],
      "type": "VEC4"
    },
    {
      "bufferView": 0,
      "byteOffset": 10710732,
      "componentType": 5125,
      "count": 334161,
      "type": "SCALAR"
    },
    {
      "bufferView": 1,
      "byteOffset": 14154936,
      "componentType": 5126,
      "count": 36221,
      "max": [
        0.2687920033931732,
        0.9031821489334106,
        0.9922934174537659
      ],
      "min": [
        -1.6644604206085205,
        -0.6106956005096436,
        -0.3163936138153076
      ],
      "type": "VEC3"
    },
    {
      "bufferView": 1,
      "byteOffset": 14589588,
      "componentType": 5126,
      "count": 36221,
      "max": [
        0.9999948740005493,
        0.9986598491668701,
        0.9995588660240173
      ],
      "min": [
        -0.9999920129776001,
        -0.9993162155151367,
        -0.9999986886978149
      ],
      "type": "VEC3"
    },
    {
      "bufferView": 2,
      "byteOffset": 9436624,
      "componentType": 5126,
      "count": 36221,
      "max": [
        1.0,
        1.0,
        1.0,
        0.0
      ],
      "min": [
        1.0,
        1.0,
        1.0,
        0.0
      ],
      "type": "VEC4"
    },
    {
      "bufferView": 0,
      "byteOffset": 12047376,
      "componentType": 5125,
      "count": 163266,
      "type": "SCALAR"
    }
  ],
  "asset": {
    "extras": {
      "author": "Jekyre3D (https://sketchfab.com/jekyre3d)",
      "license": "CC-BY-4.0 (http://creativecommons.org/licenses/by/4.0/)",
      "source": "https://sketchfab.com/3d-models/tbh-creature-f9e56ef30d974c30b7eb54e050eab220",
      "title": "tbh creature"
    },
    "generator": "Sketchfab-15.5.0",
    "version": "2.0"
  },
  "bufferViews": [
    {
      "buffer": 0,
      "byteLength": 12700440,
      "name": "floatBufferViews",
      "target": 34963
    },
    {
      "buffer": 0,
      "byteLength": 15024240,
      "byteOffset": 12700440,
      "byteStride": 12,
      "name": "floatBufferViews",
      "target": 34962
    },
    {
      "buffer": 0,
      "byteLength": 10016160,
      "byteOffset": 27724680,
      "byteStride": 16,
      "name": "floatBufferViews",
      "target": 34962
    }
  ],
  "buffers": [
    {
      "byteLength": 37740840,
      "uri": "scene.bin"
    }
  ],
  "materials": [
    {
      "name": "material_0",
      "pbrMetallicRoughness": {
        "metallicFactor": 0.0,
        "roughnessFactor": 0.25
      }
    }
  ],
  "meshes": [
    {
      "name": "Object_0",
      "primitives": [
        {
          "attributes": {
            "COLOR_0": 2,
            "NORMAL": 1,
            "POSITION": 0
          },
          "indices": 3,
          "material": 0,
          "mode": 4
        }
      ]
    },
    {
      "name": "Object_1",
      "primitives": [
        {
          "attributes": {
            "COLOR_0": 6,
            "NORMAL": 5,
            "POSITION": 4
          },
          "indices": 7,
          "material": 0,
          "mode": 4
        }
      ]
    },
    {
      "name": "Object_2",
      "primitives": [
        {
          "attributes": {
            "COLOR_0": 10,
            "NORMAL": 9,
            "POSITION": 8
          },
          "indices": 11,
          "material": 0,
          "mode": 4
        }
      ]
    },
    {
      "name": "Object_3",
      "primitives": [
        {
          "attributes": {
            "COLOR_0": 14,
            "NORMAL": 13,
            "POSITION": 12
          },
          "indices": 15,
          "material": 0,
          "mode": 4
        }
      ]
    },
    {
      "name": "Object_4",
      "primitives": [
        {
          "attributes": {
            "COLOR_0": 18,
            "NORMAL": 17,
            "POSITION": 16
          },
          "indices": 19,
          "material": 0,
          "mode": 4
        }
      ]
    },
    {
      "name": "Object_5",
      "primitives": [
        {
          "attributes": {
            "COLOR_0": 22,
            "NORMAL": 21,
            "POSITION": 20
          },
          "indices": 23,
          "material": 0,
          "mode": 4
        }
      ]
    },
    {
      "name": "Object_6",
      "primitives": [
        {
          "attributes": {
            "COLOR_0": 26,
            "NORMAL": 25,
            "POSITION": 24
          },
          "indices": 27,
          "material": 0,
          "mode": 4
        }
      ]
    },
    {
      "name": "Object_7",
      "primitives": [
        {
          "attributes": {
            "COLOR_0": 30,
            "NORMAL": 29,
            "POSITION": 28
          },
          "indices": 31,
          "material": 0,
          "mode": 4
        }
      ]
    },
    {
      "name": "Object_8",
      "primitives": [
        {
          "attributes": {
            "COLOR_0": 34,
            "NORMAL": 33,
            "POSITION": 32
          },
          "indices": 35,
          "material": 0,
          "mode": 4
        }
      ]
    },
    {
      "name": "Object_9",
      "primitives": [
        {
          "attributes": {
            "COLOR_0": 38,
            "NORMAL": 37,
            "POSITION": 36
          },
          "indices": 39,
          "material": 0,
          "mode": 4
        }
      ]
    }
  ],
  "nodes": [
    {
      "children": [
        1
      ],
      "matrix": [
        1.0,
        0.0,
        0.0,
        0.0,
        0.0,
        2.220446049250313e-16,
        -1.0,
        0.0,
        0.0,
        1.0,
        2.220446049250313e-16,
        0.0,
        0.0,
        0.0,
        0.0,
        1.0
      ],
      "name": "Sketchfab_model"
    },
    {
      "children": [
        2
      ],
      "name": "root"
    },
    {
      "children": [
        3
      ],
      "matrix": [
        1.0,
        0.0,
        0.0,
        0.0,
        0.0,
        2.220446049250313e-16,
        1.0,
        0.0,
        0.0,
        -1.0,
        2.220446049250313e-16,
        0.0,
        0.0,
        0.0,
        0.0,
        1.0
      ],
      "name": "GLTF_SceneRootNode"
    },
    {
      "children": [
        4,
        5,
        6,
        7,
        8,
        9,
        10,
        11,
        12,
        13
      ],
      "matrix": [
        0.15868358314037323,
        0.0,
        0.0,
        0.0,
        0.0,
        0.1586836278438568,
        0.0,
        0.0,
        0.0,
        0.0,
        0.1586836278438568,
        0.0,
        0.254802942276001,
        -0.3580220639705658,
        -0.10425212234258652,
        1.0
      ],
      "name": "Sphere_0"
    },
    {
      "mesh": 0,
      "name": "Object_4"
    },
    {
      "mesh": 1,
      "name": "Object_5"
    },
    {
      "mesh": 2,
      "name": "Object_6"
    },
    {
      "mesh": 3,
      "name": "Object_7"
    },
    {
      "mesh": 4,
      "name": "Object_8"
    },
    {
      "mesh": 5,
      "name": "Object_9"
    },
    {
      "mesh": 6,
      "name": "Object_10"
    },
    {
      "mesh": 7,
      "name": "Object_11"
    },
    {
      "mesh": 8,
      "name": "Object_12"
    },
    {
      "mesh": 9,
      "name": "Object_13"
    }
  ],
  "scene": 0,
  "scenes": [
    {
      "name": "Sketchfab_Scene",
      "nodes": [
        0
      ]
    }
  ]
}
